<svg id="ehQz5ZK1nPq1" xmlns="http://www.w3.org/2000/svg" xmlns:xlink="http://www.w3.org/1999/xlink" viewBox="0 0 1920 1080" shape-rendering="geometricPrecision" text-rendering="geometricPrecision"><path d="M510.37221,333.49876c0,77.22598-100.63047,39.65326-119.1067,101.2407-11.80155,39.33851,69.24936,46.19103,83.37469,74.44169c15.23799,30.47599,10.68815,61.85834,0,88.57871" fill="none" stroke="#ececec" stroke-width="4" stroke-linecap="round"/><path d="M703.09048,328.30472c19.15688,114.94131,166.0855,58.68248,240.39626,92.4601c50.29402,22.86092,21.38821,97.67183,71.32636,126.80242c33.4148,19.49197,76.39671,18.49202,113.59384,18.49202c233.34654,0,290.58888.76582,290.58888,250.96313" fill="none" stroke="#ececec" stroke-width="4"/><path d="M458.285756,590.344254c11.001318,29.703559-62.157448,47.855734,11.551384,30.253625" transform="matrix(.738451-.674307 0.674307 0.738451-281.720221 455.974067)" fill="none" stroke="#ececec" stroke-width="3.84"/><path d="M1399.750185,817.0224q10.57,7.864494,2.936111,30.766161c-7.633889,22.901667,61.071114-28.186668,40.518335-38.756669" transform="matrix(.968563-.248767 0.248767 0.968563-161.885361 362.173327)" fill="none" stroke="#ececec" stroke-width="3.84"/></svg>
